<?xml version="1.0" encoding="utf-8" standalone="no"?>
<!DOCTYPE svg PUBLIC "-//W3C//DTD SVG 1.1//EN"
  "http://www.w3.org/Graphics/SVG/1.1/DTD/svg11.dtd">
<!-- Created with matplotlib (http://matplotlib.org/) -->
<svg height="345pt" version="1.1" viewBox="0 0 460 345" width="460pt" xmlns="http://www.w3.org/2000/svg" xmlns:xlink="http://www.w3.org/1999/xlink">
 <defs>
  <style type="text/css">
*{stroke-linecap:butt;stroke-linejoin:round;}
  </style>
 </defs>
 <g id="figure_1">
  <g id="patch_1">
   <path d="M 0 345.6 
L 460.8 345.6 
L 460.8 0 
L 0 0 
z
" style="fill:#ffffff;"/>
  </g>
  <g id="axes_1">
   <g id="LineCollection_1">
    <path clip-path="url(#p36a691249e)" d="M 363.797841 77.998627 
L 328.726413 126.227598 
" style="fill:none;stroke:#b3e2cd;stroke-width:1.5;"/>
    <path clip-path="url(#p36a691249e)" d="M 214.135706 134.581662 
L 169.412341 177.490335 
" style="fill:none;stroke:#b3e2cd;stroke-width:1.5;"/>
    <path clip-path="url(#p36a691249e)" d="M 214.135706 134.581662 
L 227.792332 82.597476 
" style="fill:none;stroke:#b3e2cd;stroke-width:1.5;"/>
    <path clip-path="url(#p36a691249e)" d="M 214.135706 134.581662 
L 148.961031 123.594772 
" style="fill:none;stroke:#b3e2cd;stroke-width:1.5;"/>
    <path clip-path="url(#p36a691249e)" d="M 214.135706 134.581662 
L 282.094702 157.219665 
" style="fill:none;stroke:#b3e2cd;stroke-width:1.5;"/>
    <path clip-path="url(#p36a691249e)" d="M 161.067481 265.599737 
L 225.794849 253.252227 
" style="fill:none;stroke:#f4cae4;stroke-width:1.5;"/>
    <path clip-path="url(#p36a691249e)" d="M 161.067481 265.599737 
L 98.339216 257.230937 
" style="fill:none;stroke:#b3e2cd;stroke-width:1.5;"/>
    <path clip-path="url(#p36a691249e)" d="M 161.067481 265.599737 
L 161.01886 315.609917 
" style="fill:none;stroke:#b3e2cd;stroke-width:1.5;"/>
    <path clip-path="url(#p36a691249e)" d="M 397.005493 128.757886 
L 354.146716 166.53918 
" style="fill:none;stroke:#b3e2cd;stroke-width:1.5;"/>
    <path clip-path="url(#p36a691249e)" d="M 169.412341 177.490335 
L 134.204776 221.477189 
" style="fill:none;stroke:#f4cae4;stroke-width:1.5;"/>
    <path clip-path="url(#p36a691249e)" d="M 225.794849 253.252227 
L 260.239076 208.031849 
" style="fill:none;stroke:#b3e2cd;stroke-width:1.5;"/>
    <path clip-path="url(#p36a691249e)" d="M 328.726413 126.227598 
L 282.094702 157.219665 
" style="fill:none;stroke:#b3e2cd;stroke-width:1.5;"/>
    <path clip-path="url(#p36a691249e)" d="M 282.094702 157.219665 
L 354.146716 166.53918 
" style="fill:none;stroke:#b3e2cd;stroke-width:1.5;"/>
    <path clip-path="url(#p36a691249e)" d="M 282.094702 157.219665 
L 214.135706 134.581662 
" style="fill:none;stroke:#f4cae4;stroke-width:1.5;"/>
    <path clip-path="url(#p36a691249e)" d="M 356.148251 215.453864 
L 354.146716 166.53918 
" style="fill:none;stroke:#b3e2cd;stroke-width:1.5;"/>
    <path clip-path="url(#p36a691249e)" d="M 134.204776 221.477189 
L 161.067481 265.599737 
" style="fill:none;stroke:#b3e2cd;stroke-width:1.5;"/>
    <path clip-path="url(#p36a691249e)" d="M 134.204776 221.477189 
L 98.339216 257.230937 
" style="fill:none;stroke:#b3e2cd;stroke-width:1.5;"/>
    <path clip-path="url(#p36a691249e)" d="M 98.339216 257.230937 
L 161.067481 265.599737 
" style="fill:none;stroke:#b3e2cd;stroke-width:1.5;"/>
    <path clip-path="url(#p36a691249e)" d="M 98.339216 257.230937 
L 39.986777 275.288634 
" style="fill:none;stroke:#f4cae4;stroke-width:1.5;"/>
    <path clip-path="url(#p36a691249e)" d="M 98.339216 257.230937 
L 134.204776 221.477189 
" style="fill:none;stroke:#cccccc;stroke-width:1.5;"/>
    <path clip-path="url(#p36a691249e)" d="M 161.01886 315.609917 
L 161.067481 265.599737 
" style="fill:none;stroke:#b3e2cd;stroke-width:1.5;"/>
    <path clip-path="url(#p36a691249e)" d="M 417.369287 184.790777 
L 354.146716 166.53918 
" style="fill:none;stroke:#b3e2cd;stroke-width:1.5;"/>
    <path clip-path="url(#p36a691249e)" d="M 354.146716 166.53918 
L 397.005493 128.757886 
" style="fill:none;stroke:#b3e2cd;stroke-width:1.5;"/>
    <path clip-path="url(#p36a691249e)" d="M 354.146716 166.53918 
L 356.148251 215.453864 
" style="fill:none;stroke:#b3e2cd;stroke-width:1.5;"/>
    <path clip-path="url(#p36a691249e)" d="M 354.146716 166.53918 
L 393.585866 210.000943 
" style="fill:none;stroke:#b3e2cd;stroke-width:1.5;"/>
    <path clip-path="url(#p36a691249e)" d="M 354.146716 166.53918 
L 420.813223 153.379841 
" style="fill:none;stroke:#b3e2cd;stroke-width:1.5;"/>
    <path clip-path="url(#p36a691249e)" d="M 354.146716 166.53918 
L 282.094702 157.219665 
" style="fill:none;stroke:#b3e2cd;stroke-width:1.5;"/>
    <path clip-path="url(#p36a691249e)" d="M 354.146716 166.53918 
L 417.369287 184.790777 
" style="fill:none;stroke:#b3e2cd;stroke-width:1.5;"/>
    <path clip-path="url(#p36a691249e)" d="M 354.146716 166.53918 
L 328.726413 126.227598 
" style="fill:none;stroke:#b3e2cd;stroke-width:1.5;"/>
    <path clip-path="url(#p36a691249e)" d="M 176.300214 94.367828 
L 214.135706 134.581662 
" style="fill:none;stroke:#b3e2cd;stroke-width:1.5;"/>
    <path clip-path="url(#p36a691249e)" d="M 393.585866 210.000943 
L 354.146716 166.53918 
" style="fill:none;stroke:#b3e2cd;stroke-width:1.5;"/>
    <path clip-path="url(#p36a691249e)" d="M 39.986777 275.288634 
L 98.339216 257.230937 
" style="fill:none;stroke:#b3e2cd;stroke-width:1.5;"/>
    <path clip-path="url(#p36a691249e)" d="M 404.679394 38.831661 
L 363.797841 77.998627 
" style="fill:none;stroke:#b3e2cd;stroke-width:1.5;"/>
    <path clip-path="url(#p36a691249e)" d="M 220.59491 29.990083 
L 227.792332 82.597476 
" style="fill:none;stroke:#b3e2cd;stroke-width:1.5;"/>
    <path clip-path="url(#p36a691249e)" d="M 148.961031 123.594772 
L 92.699264 93.50209 
" style="fill:none;stroke:#b3e2cd;stroke-width:1.5;"/>
    <path clip-path="url(#p36a691249e)" d="M 92.699264 93.50209 
L 124.966923 59.713751 
" style="fill:none;stroke:#b3e2cd;stroke-width:1.5;"/>
    <path clip-path="url(#p36a691249e)" d="M 124.966923 59.713751 
L 176.300214 94.367828 
" style="fill:none;stroke:#b3e2cd;stroke-width:1.5;"/>
    <path clip-path="url(#p36a691249e)" d="M 227.792332 82.597476 
L 214.135706 134.581662 
" style="fill:none;stroke:#b3e2cd;stroke-width:1.5;"/>
    <path clip-path="url(#p36a691249e)" d="M 227.792332 82.597476 
L 220.59491 29.990083 
" style="fill:none;stroke:#b3e2cd;stroke-width:1.5;"/>
    <path clip-path="url(#p36a691249e)" d="M 260.239076 208.031849 
L 282.094702 157.219665 
" style="fill:none;stroke:#b3e2cd;stroke-width:1.5;"/>
   </g>
   <g id="LineCollection_2">
    <path clip-path="url(#p36a691249e)" d="M 337.49427 114.170355 
L 328.726413 126.227598 
" style="fill:none;stroke:#1f77b4;stroke-width:6;"/>
    <path clip-path="url(#p36a691249e)" d="M 180.593183 166.763166 
L 169.412341 177.490335 
" style="fill:none;stroke:#1f77b4;stroke-width:6;"/>
    <path clip-path="url(#p36a691249e)" d="M 224.378176 95.593523 
L 227.792332 82.597476 
" style="fill:none;stroke:#1f77b4;stroke-width:6;"/>
    <path clip-path="url(#p36a691249e)" d="M 165.2547 126.341494 
L 148.961031 123.594772 
" style="fill:none;stroke:#1f77b4;stroke-width:6;"/>
    <path clip-path="url(#p36a691249e)" d="M 265.104953 151.560164 
L 282.094702 157.219665 
" style="fill:none;stroke:#1f77b4;stroke-width:6;"/>
    <path clip-path="url(#p36a691249e)" d="M 209.613007 256.339105 
L 225.794849 253.252227 
" style="fill:none;stroke:#1f77b4;stroke-width:6;"/>
    <path clip-path="url(#p36a691249e)" d="M 114.021282 259.323137 
L 98.339216 257.230937 
" style="fill:none;stroke:#1f77b4;stroke-width:6;"/>
    <path clip-path="url(#p36a691249e)" d="M 161.031016 303.107372 
L 161.01886 315.609917 
" style="fill:none;stroke:#1f77b4;stroke-width:6;"/>
    <path clip-path="url(#p36a691249e)" d="M 364.86141 157.093856 
L 354.146716 166.53918 
" style="fill:none;stroke:#1f77b4;stroke-width:6;"/>
    <path clip-path="url(#p36a691249e)" d="M 143.006667 210.480476 
L 134.204776 221.477189 
" style="fill:none;stroke:#1f77b4;stroke-width:6;"/>
    <path clip-path="url(#p36a691249e)" d="M 251.628019 219.336944 
L 260.239076 208.031849 
" style="fill:none;stroke:#1f77b4;stroke-width:6;"/>
    <path clip-path="url(#p36a691249e)" d="M 293.75263 149.471648 
L 282.094702 157.219665 
" style="fill:none;stroke:#1f77b4;stroke-width:6;"/>
    <path clip-path="url(#p36a691249e)" d="M 336.133713 164.209301 
L 354.146716 166.53918 
" style="fill:none;stroke:#1f77b4;stroke-width:6;"/>
    <path clip-path="url(#p36a691249e)" d="M 231.125455 140.241162 
L 214.135706 134.581662 
" style="fill:none;stroke:#1f77b4;stroke-width:6;"/>
    <path clip-path="url(#p36a691249e)" d="M 354.6471 178.767851 
L 354.146716 166.53918 
" style="fill:none;stroke:#1f77b4;stroke-width:6;"/>
    <path clip-path="url(#p36a691249e)" d="M 154.351805 254.5691 
L 161.067481 265.599737 
" style="fill:none;stroke:#1f77b4;stroke-width:6;"/>
    <path clip-path="url(#p36a691249e)" d="M 107.305606 248.2925 
L 98.339216 257.230937 
" style="fill:none;stroke:#1f77b4;stroke-width:6;"/>
    <path clip-path="url(#p36a691249e)" d="M 145.385415 263.507537 
L 161.067481 265.599737 
" style="fill:none;stroke:#1f77b4;stroke-width:6;"/>
    <path clip-path="url(#p36a691249e)" d="M 54.574887 270.77421 
L 39.986777 275.288634 
" style="fill:none;stroke:#1f77b4;stroke-width:6;"/>
    <path clip-path="url(#p36a691249e)" d="M 125.238386 230.415626 
L 134.204776 221.477189 
" style="fill:none;stroke:#1f77b4;stroke-width:6;"/>
    <path clip-path="url(#p36a691249e)" d="M 161.055326 278.102282 
L 161.067481 265.599737 
" style="fill:none;stroke:#1f77b4;stroke-width:6;"/>
    <path clip-path="url(#p36a691249e)" d="M 369.952359 171.102079 
L 354.146716 166.53918 
" style="fill:none;stroke:#1f77b4;stroke-width:6;"/>
    <path clip-path="url(#p36a691249e)" d="M 386.290799 138.203209 
L 397.005493 128.757886 
" style="fill:none;stroke:#1f77b4;stroke-width:6;"/>
    <path clip-path="url(#p36a691249e)" d="M 355.647867 203.225193 
L 356.148251 215.453864 
" style="fill:none;stroke:#1f77b4;stroke-width:6;"/>
    <path clip-path="url(#p36a691249e)" d="M 383.726079 199.135502 
L 393.585866 210.000943 
" style="fill:none;stroke:#1f77b4;stroke-width:6;"/>
    <path clip-path="url(#p36a691249e)" d="M 404.146596 156.669675 
L 420.813223 153.379841 
" style="fill:none;stroke:#1f77b4;stroke-width:6;"/>
    <path clip-path="url(#p36a691249e)" d="M 300.107706 159.549543 
L 282.094702 157.219665 
" style="fill:none;stroke:#1f77b4;stroke-width:6;"/>
    <path clip-path="url(#p36a691249e)" d="M 401.563644 180.227878 
L 417.369287 184.790777 
" style="fill:none;stroke:#1f77b4;stroke-width:6;"/>
    <path clip-path="url(#p36a691249e)" d="M 335.081489 136.305493 
L 328.726413 126.227598 
" style="fill:none;stroke:#1f77b4;stroke-width:6;"/>
    <path clip-path="url(#p36a691249e)" d="M 204.676833 124.528203 
L 214.135706 134.581662 
" style="fill:none;stroke:#1f77b4;stroke-width:6;"/>
    <path clip-path="url(#p36a691249e)" d="M 364.006504 177.404621 
L 354.146716 166.53918 
" style="fill:none;stroke:#1f77b4;stroke-width:6;"/>
    <path clip-path="url(#p36a691249e)" d="M 83.751106 261.745362 
L 98.339216 257.230937 
" style="fill:none;stroke:#1f77b4;stroke-width:6;"/>
    <path clip-path="url(#p36a691249e)" d="M 374.01823 68.206886 
L 363.797841 77.998627 
" style="fill:none;stroke:#1f77b4;stroke-width:6;"/>
    <path clip-path="url(#p36a691249e)" d="M 225.992977 69.445628 
L 227.792332 82.597476 
" style="fill:none;stroke:#1f77b4;stroke-width:6;"/>
    <path clip-path="url(#p36a691249e)" d="M 106.764706 101.025261 
L 92.699264 93.50209 
" style="fill:none;stroke:#1f77b4;stroke-width:6;"/>
    <path clip-path="url(#p36a691249e)" d="M 116.900008 68.160836 
L 124.966923 59.713751 
" style="fill:none;stroke:#1f77b4;stroke-width:6;"/>
    <path clip-path="url(#p36a691249e)" d="M 163.466892 85.704309 
L 176.300214 94.367828 
" style="fill:none;stroke:#1f77b4;stroke-width:6;"/>
    <path clip-path="url(#p36a691249e)" d="M 217.549863 121.585615 
L 214.135706 134.581662 
" style="fill:none;stroke:#1f77b4;stroke-width:6;"/>
    <path clip-path="url(#p36a691249e)" d="M 222.394266 43.141931 
L 220.59491 29.990083 
" style="fill:none;stroke:#1f77b4;stroke-width:6;"/>
    <path clip-path="url(#p36a691249e)" d="M 276.630796 169.922711 
L 282.094702 157.219665 
" style="fill:none;stroke:#1f77b4;stroke-width:6;"/>
   </g>
   <g id="PathCollection_1">
    <defs>
     <path d="M 0 15.811388 
C 4.193229 15.811388 8.215279 14.145401 11.18034 11.18034 
C 14.145401 8.215279 15.811388 4.193229 15.811388 0 
C 15.811388 -4.193229 14.145401 -8.215279 11.18034 -11.18034 
C 8.215279 -14.145401 4.193229 -15.811388 0 -15.811388 
C -4.193229 -15.811388 -8.215279 -14.145401 -11.18034 -11.18034 
C -14.145401 -8.215279 -15.811388 -4.193229 -15.811388 0 
C -15.811388 4.193229 -14.145401 8.215279 -11.18034 11.18034 
C -8.215279 14.145401 -4.193229 15.811388 0 15.811388 
z
" id="C0_0_1172a14362"/>
    </defs>
    <g clip-path="url(#p36a691249e)">
     <use style="fill:#fbb4ae;stroke:#fbb4ae;" x="363.797841" xlink:href="#C0_0_1172a14362" y="77.998627"/>
    </g>
    <g clip-path="url(#p36a691249e)">
     <use style="fill:#ffffcc;stroke:#ffffcc;" x="214.135706" xlink:href="#C0_0_1172a14362" y="134.581662"/>
    </g>
    <g clip-path="url(#p36a691249e)">
     <use style="fill:#decbe4;stroke:#decbe4;" x="161.067481" xlink:href="#C0_0_1172a14362" y="265.599737"/>
    </g>
    <g clip-path="url(#p36a691249e)">
     <use style="fill:#fbb4ae;stroke:#fbb4ae;" x="397.005493" xlink:href="#C0_0_1172a14362" y="128.757886"/>
    </g>
    <g clip-path="url(#p36a691249e)">
     <use style="fill:#fbb4ae;stroke:#fbb4ae;" x="169.412341" xlink:href="#C0_0_1172a14362" y="177.490335"/>
    </g>
    <g clip-path="url(#p36a691249e)">
     <use style="fill:#fbb4ae;stroke:#fbb4ae;" x="225.794849" xlink:href="#C0_0_1172a14362" y="253.252227"/>
    </g>
    <g clip-path="url(#p36a691249e)">
     <use style="fill:#b3cde3;stroke:#b3cde3;" x="328.726413" xlink:href="#C0_0_1172a14362" y="126.227598"/>
    </g>
    <g clip-path="url(#p36a691249e)">
     <use style="fill:#ffffcc;stroke:#ffffcc;" x="282.094702" xlink:href="#C0_0_1172a14362" y="157.219665"/>
    </g>
    <g clip-path="url(#p36a691249e)">
     <use style="fill:#b3cde3;stroke:#b3cde3;" x="356.148251" xlink:href="#C0_0_1172a14362" y="215.453864"/>
    </g>
    <g clip-path="url(#p36a691249e)">
     <use style="fill:#b3cde3;stroke:#b3cde3;" x="134.204776" xlink:href="#C0_0_1172a14362" y="221.477189"/>
    </g>
    <g clip-path="url(#p36a691249e)">
     <use style="fill:#decbe4;stroke:#decbe4;" x="98.339216" xlink:href="#C0_0_1172a14362" y="257.230937"/>
    </g>
    <g clip-path="url(#p36a691249e)">
     <use style="fill:#fbb4ae;stroke:#fbb4ae;" x="161.01886" xlink:href="#C0_0_1172a14362" y="315.609917"/>
    </g>
    <g clip-path="url(#p36a691249e)">
     <use style="fill:#fbb4ae;stroke:#fbb4ae;" x="417.369287" xlink:href="#C0_0_1172a14362" y="184.790777"/>
    </g>
    <g clip-path="url(#p36a691249e)">
     <use style="fill:#f2f2f2;stroke:#f2f2f2;" x="354.146716" xlink:href="#C0_0_1172a14362" y="166.53918"/>
    </g>
    <g clip-path="url(#p36a691249e)">
     <use style="fill:#fbb4ae;stroke:#fbb4ae;" x="420.813223" xlink:href="#C0_0_1172a14362" y="153.379841"/>
    </g>
    <g clip-path="url(#p36a691249e)">
     <use style="fill:#fbb4ae;stroke:#fbb4ae;" x="176.300214" xlink:href="#C0_0_1172a14362" y="94.367828"/>
    </g>
    <g clip-path="url(#p36a691249e)">
     <use style="fill:#fbb4ae;stroke:#fbb4ae;" x="393.585866" xlink:href="#C0_0_1172a14362" y="210.000943"/>
    </g>
    <g clip-path="url(#p36a691249e)">
     <use style="fill:#fbb4ae;stroke:#fbb4ae;" x="39.986777" xlink:href="#C0_0_1172a14362" y="275.288634"/>
    </g>
    <g clip-path="url(#p36a691249e)">
     <use style="fill:#fbb4ae;stroke:#fbb4ae;" x="404.679394" xlink:href="#C0_0_1172a14362" y="38.831661"/>
    </g>
    <g clip-path="url(#p36a691249e)">
     <use style="fill:#fbb4ae;stroke:#fbb4ae;" x="220.59491" xlink:href="#C0_0_1172a14362" y="29.990083"/>
    </g>
    <g clip-path="url(#p36a691249e)">
     <use style="fill:#fbb4ae;stroke:#fbb4ae;" x="148.961031" xlink:href="#C0_0_1172a14362" y="123.594772"/>
    </g>
    <g clip-path="url(#p36a691249e)">
     <use style="fill:#fbb4ae;stroke:#fbb4ae;" x="92.699264" xlink:href="#C0_0_1172a14362" y="93.50209"/>
    </g>
    <g clip-path="url(#p36a691249e)">
     <use style="fill:#fbb4ae;stroke:#fbb4ae;" x="124.966923" xlink:href="#C0_0_1172a14362" y="59.713751"/>
    </g>
    <g clip-path="url(#p36a691249e)">
     <use style="fill:#ccebc5;stroke:#ccebc5;" x="227.792332" xlink:href="#C0_0_1172a14362" y="82.597476"/>
    </g>
    <g clip-path="url(#p36a691249e)">
     <use style="fill:#fbb4ae;stroke:#fbb4ae;" x="260.239076" xlink:href="#C0_0_1172a14362" y="208.031849"/>
    </g>
   </g>
   <g id="text_1">
    <g clip-path="url(#p36a691249e)">
     <!-- BEG -->
     <defs>
      <path d="M 19.671875 34.8125 
L 19.671875 8.109375 
L 35.5 8.109375 
Q 43.453125 8.109375 47.28125 11.40625 
Q 51.125 14.703125 51.125 21.484375 
Q 51.125 28.328125 47.28125 31.5625 
Q 43.453125 34.8125 35.5 34.8125 
z
M 19.671875 64.796875 
L 19.671875 42.828125 
L 34.28125 42.828125 
Q 41.5 42.828125 45.03125 45.53125 
Q 48.578125 48.25 48.578125 53.8125 
Q 48.578125 59.328125 45.03125 62.0625 
Q 41.5 64.796875 34.28125 64.796875 
z
M 9.8125 72.90625 
L 35.015625 72.90625 
Q 46.296875 72.90625 52.390625 68.21875 
Q 58.5 63.53125 58.5 54.890625 
Q 58.5 48.1875 55.375 44.234375 
Q 52.25 40.28125 46.1875 39.3125 
Q 53.46875 37.75 57.5 32.78125 
Q 61.53125 27.828125 61.53125 20.40625 
Q 61.53125 10.640625 54.890625 5.3125 
Q 48.25 0 35.984375 0 
L 9.8125 0 
z
" id="DejaVuSans-42"/>
      <path d="M 9.8125 72.90625 
L 55.90625 72.90625 
L 55.90625 64.59375 
L 19.671875 64.59375 
L 19.671875 43.015625 
L 54.390625 43.015625 
L 54.390625 34.71875 
L 19.671875 34.71875 
L 19.671875 8.296875 
L 56.78125 8.296875 
L 56.78125 0 
L 9.8125 0 
z
" id="DejaVuSans-45"/>
      <path d="M 59.515625 10.40625 
L 59.515625 29.984375 
L 43.40625 29.984375 
L 43.40625 38.09375 
L 69.28125 38.09375 
L 69.28125 6.78125 
Q 63.578125 2.734375 56.6875 0.65625 
Q 49.8125 -1.421875 42 -1.421875 
Q 24.90625 -1.421875 15.25 8.5625 
Q 5.609375 18.5625 5.609375 36.375 
Q 5.609375 54.25 15.25 64.234375 
Q 24.90625 74.21875 42 74.21875 
Q 49.125 74.21875 55.546875 72.453125 
Q 61.96875 70.703125 67.390625 67.28125 
L 67.390625 56.78125 
Q 61.921875 61.421875 55.765625 63.765625 
Q 49.609375 66.109375 42.828125 66.109375 
Q 29.4375 66.109375 22.71875 58.640625 
Q 16.015625 51.171875 16.015625 36.375 
Q 16.015625 21.625 22.71875 14.15625 
Q 29.4375 6.6875 42.828125 6.6875 
Q 48.046875 6.6875 52.140625 7.59375 
Q 56.25 8.5 59.515625 10.40625 
z
" id="DejaVuSans-47"/>
     </defs>
     <g transform="translate(351.240966 81.309877)scale(0.12 -0.12)">
      <use xlink:href="#DejaVuSans-42"/>
      <use x="68.603516" xlink:href="#DejaVuSans-45"/>
      <use x="131.787109" xlink:href="#DejaVuSans-47"/>
     </g>
    </g>
   </g>
   <g id="text_2">
    <g clip-path="url(#p36a691249e)">
     <!-- DME -->
     <defs>
      <path d="M 19.671875 64.796875 
L 19.671875 8.109375 
L 31.59375 8.109375 
Q 46.6875 8.109375 53.6875 14.9375 
Q 60.6875 21.78125 60.6875 36.53125 
Q 60.6875 51.171875 53.6875 57.984375 
Q 46.6875 64.796875 31.59375 64.796875 
z
M 9.8125 72.90625 
L 30.078125 72.90625 
Q 51.265625 72.90625 61.171875 64.09375 
Q 71.09375 55.28125 71.09375 36.53125 
Q 71.09375 17.671875 61.125 8.828125 
Q 51.171875 0 30.078125 0 
L 9.8125 0 
z
" id="DejaVuSans-44"/>
      <path d="M 9.8125 72.90625 
L 24.515625 72.90625 
L 43.109375 23.296875 
L 61.8125 72.90625 
L 76.515625 72.90625 
L 76.515625 0 
L 66.890625 0 
L 66.890625 64.015625 
L 48.09375 14.015625 
L 38.1875 14.015625 
L 19.390625 64.015625 
L 19.390625 0 
L 9.8125 0 
z
" id="DejaVuSans-4d"/>
     </defs>
     <g transform="translate(200.547581 137.892912)scale(0.12 -0.12)">
      <use xlink:href="#DejaVuSans-44"/>
      <use x="77.001953" xlink:href="#DejaVuSans-4d"/>
      <use x="163.28125" xlink:href="#DejaVuSans-45"/>
     </g>
    </g>
   </g>
   <g id="text_3">
    <g clip-path="url(#p36a691249e)">
     <!-- SIN -->
     <defs>
      <path d="M 53.515625 70.515625 
L 53.515625 60.890625 
Q 47.90625 63.578125 42.921875 64.890625 
Q 37.9375 66.21875 33.296875 66.21875 
Q 25.25 66.21875 20.875 63.09375 
Q 16.5 59.96875 16.5 54.203125 
Q 16.5 49.359375 19.40625 46.890625 
Q 22.3125 44.4375 30.421875 42.921875 
L 36.375 41.703125 
Q 47.40625 39.59375 52.65625 34.296875 
Q 57.90625 29 57.90625 20.125 
Q 57.90625 9.515625 50.796875 4.046875 
Q 43.703125 -1.421875 29.984375 -1.421875 
Q 24.8125 -1.421875 18.96875 -0.25 
Q 13.140625 0.921875 6.890625 3.21875 
L 6.890625 13.375 
Q 12.890625 10.015625 18.65625 8.296875 
Q 24.421875 6.59375 29.984375 6.59375 
Q 38.421875 6.59375 43.015625 9.90625 
Q 47.609375 13.234375 47.609375 19.390625 
Q 47.609375 24.75 44.3125 27.78125 
Q 41.015625 30.8125 33.5 32.328125 
L 27.484375 33.5 
Q 16.453125 35.6875 11.515625 40.375 
Q 6.59375 45.0625 6.59375 53.421875 
Q 6.59375 63.09375 13.40625 68.65625 
Q 20.21875 74.21875 32.171875 74.21875 
Q 37.3125 74.21875 42.625 73.28125 
Q 47.953125 72.359375 53.515625 70.515625 
z
" id="DejaVuSans-53"/>
      <path d="M 9.8125 72.90625 
L 19.671875 72.90625 
L 19.671875 0 
L 9.8125 0 
z
" id="DejaVuSans-49"/>
      <path d="M 9.8125 72.90625 
L 23.09375 72.90625 
L 55.421875 11.921875 
L 55.421875 72.90625 
L 64.984375 72.90625 
L 64.984375 0 
L 51.703125 0 
L 19.390625 60.984375 
L 19.390625 0 
L 9.8125 0 
z
" id="DejaVuSans-4e"/>
     </defs>
     <g transform="translate(150.999668 268.910987)scale(0.12 -0.12)">
      <use xlink:href="#DejaVuSans-53"/>
      <use x="63.476562" xlink:href="#DejaVuSans-49"/>
      <use x="92.96875" xlink:href="#DejaVuSans-4e"/>
     </g>
    </g>
   </g>
   <g id="text_4">
    <g clip-path="url(#p36a691249e)">
     <!-- DUB -->
     <defs>
      <path d="M 8.6875 72.90625 
L 18.609375 72.90625 
L 18.609375 28.609375 
Q 18.609375 16.890625 22.84375 11.734375 
Q 27.09375 6.59375 36.625 6.59375 
Q 46.09375 6.59375 50.34375 11.734375 
Q 54.59375 16.890625 54.59375 28.609375 
L 54.59375 72.90625 
L 64.5 72.90625 
L 64.5 27.390625 
Q 64.5 13.140625 57.4375 5.859375 
Q 50.390625 -1.421875 36.625 -1.421875 
Q 22.796875 -1.421875 15.734375 5.859375 
Q 8.6875 13.140625 8.6875 27.390625 
z
" id="DejaVuSans-55"/>
     </defs>
     <g transform="translate(383.87768 132.069136)scale(0.12 -0.12)">
      <use xlink:href="#DejaVuSans-44"/>
      <use x="77.001953" xlink:href="#DejaVuSans-55"/>
      <use x="150.195312" xlink:href="#DejaVuSans-42"/>
     </g>
    </g>
   </g>
   <g id="text_5">
    <g clip-path="url(#p36a691249e)">
     <!-- AUH -->
     <defs>
      <path d="M 34.1875 63.1875 
L 20.796875 26.90625 
L 47.609375 26.90625 
z
M 28.609375 72.90625 
L 39.796875 72.90625 
L 67.578125 0 
L 57.328125 0 
L 50.6875 18.703125 
L 17.828125 18.703125 
L 11.1875 0 
L 0.78125 0 
z
" id="DejaVuSans-41"/>
      <path d="M 9.8125 72.90625 
L 19.671875 72.90625 
L 19.671875 43.015625 
L 55.515625 43.015625 
L 55.515625 72.90625 
L 65.375 72.90625 
L 65.375 0 
L 55.515625 0 
L 55.515625 34.71875 
L 19.671875 34.71875 
L 19.671875 0 
L 9.8125 0 
z
" id="DejaVuSans-48"/>
     </defs>
     <g transform="translate(156.404529 180.801585)scale(0.12 -0.12)">
      <use xlink:href="#DejaVuSans-41"/>
      <use x="68.408203" xlink:href="#DejaVuSans-55"/>
      <use x="141.601562" xlink:href="#DejaVuSans-48"/>
     </g>
    </g>
   </g>
   <g id="text_6">
    <g clip-path="url(#p36a691249e)">
     <!-- PEK -->
     <defs>
      <path d="M 19.671875 64.796875 
L 19.671875 37.40625 
L 32.078125 37.40625 
Q 38.96875 37.40625 42.71875 40.96875 
Q 46.484375 44.53125 46.484375 51.125 
Q 46.484375 57.671875 42.71875 61.234375 
Q 38.96875 64.796875 32.078125 64.796875 
z
M 9.8125 72.90625 
L 32.078125 72.90625 
Q 44.34375 72.90625 50.609375 67.359375 
Q 56.890625 61.8125 56.890625 51.125 
Q 56.890625 40.328125 50.609375 34.8125 
Q 44.34375 29.296875 32.078125 29.296875 
L 19.671875 29.296875 
L 19.671875 0 
L 9.8125 0 
z
" id="DejaVuSans-50"/>
      <path d="M 9.8125 72.90625 
L 19.671875 72.90625 
L 19.671875 42.09375 
L 52.390625 72.90625 
L 65.09375 72.90625 
L 28.90625 38.921875 
L 67.671875 0 
L 54.6875 0 
L 19.671875 35.109375 
L 19.671875 0 
L 9.8125 0 
z
" id="DejaVuSans-4b"/>
     </defs>
     <g transform="translate(214.451099 256.563477)scale(0.12 -0.12)">
      <use xlink:href="#DejaVuSans-50"/>
      <use x="60.302734" xlink:href="#DejaVuSans-45"/>
      <use x="123.486328" xlink:href="#DejaVuSans-4b"/>
     </g>
    </g>
   </g>
   <g id="text_7">
    <g clip-path="url(#p36a691249e)">
     <!-- SVO -->
     <defs>
      <path d="M 28.609375 0 
L 0.78125 72.90625 
L 11.078125 72.90625 
L 34.1875 11.53125 
L 57.328125 72.90625 
L 67.578125 72.90625 
L 39.796875 0 
z
" id="DejaVuSans-56"/>
      <path d="M 39.40625 66.21875 
Q 28.65625 66.21875 22.328125 58.203125 
Q 16.015625 50.203125 16.015625 36.375 
Q 16.015625 22.609375 22.328125 14.59375 
Q 28.65625 6.59375 39.40625 6.59375 
Q 50.140625 6.59375 56.421875 14.59375 
Q 62.703125 22.609375 62.703125 36.375 
Q 62.703125 50.203125 56.421875 58.203125 
Q 50.140625 66.21875 39.40625 66.21875 
z
M 39.40625 74.21875 
Q 54.734375 74.21875 63.90625 63.9375 
Q 73.09375 53.65625 73.09375 36.375 
Q 73.09375 19.140625 63.90625 8.859375 
Q 54.734375 -1.421875 39.40625 -1.421875 
Q 24.03125 -1.421875 14.8125 8.828125 
Q 5.609375 19.09375 5.609375 36.375 
Q 5.609375 53.65625 14.8125 63.9375 
Q 24.03125 74.21875 39.40625 74.21875 
z
" id="DejaVuSans-4f"/>
     </defs>
     <g transform="translate(316.090788 129.538848)scale(0.12 -0.12)">
      <use xlink:href="#DejaVuSans-53"/>
      <use x="63.476562" xlink:href="#DejaVuSans-56"/>
      <use x="131.869141" xlink:href="#DejaVuSans-4f"/>
     </g>
    </g>
   </g>
   <g id="text_8">
    <g clip-path="url(#p36a691249e)">
     <!-- LED -->
     <defs>
      <path d="M 9.8125 72.90625 
L 19.671875 72.90625 
L 19.671875 8.296875 
L 55.171875 8.296875 
L 55.171875 0 
L 9.8125 0 
z
" id="DejaVuSans-4c"/>
     </defs>
     <g transform="translate(270.340327 160.530915)scale(0.12 -0.12)">
      <use xlink:href="#DejaVuSans-4c"/>
      <use x="55.712891" xlink:href="#DejaVuSans-45"/>
      <use x="118.896484" xlink:href="#DejaVuSans-44"/>
     </g>
    </g>
   </g>
   <g id="text_9">
    <g clip-path="url(#p36a691249e)">
     <!-- AMS -->
     <g transform="translate(343.057938 218.765114)scale(0.12 -0.12)">
      <use xlink:href="#DejaVuSans-41"/>
      <use x="68.408203" xlink:href="#DejaVuSans-4d"/>
      <use x="154.6875" xlink:href="#DejaVuSans-53"/>
     </g>
    </g>
   </g>
   <g id="text_10">
    <g clip-path="url(#p36a691249e)">
     <!-- CGK -->
     <defs>
      <path d="M 64.40625 67.28125 
L 64.40625 56.890625 
Q 59.421875 61.53125 53.78125 63.8125 
Q 48.140625 66.109375 41.796875 66.109375 
Q 29.296875 66.109375 22.65625 58.46875 
Q 16.015625 50.828125 16.015625 36.375 
Q 16.015625 21.96875 22.65625 14.328125 
Q 29.296875 6.6875 41.796875 6.6875 
Q 48.140625 6.6875 53.78125 8.984375 
Q 59.421875 11.28125 64.40625 15.921875 
L 64.40625 5.609375 
Q 59.234375 2.09375 53.4375 0.328125 
Q 47.65625 -1.421875 41.21875 -1.421875 
Q 24.65625 -1.421875 15.125 8.703125 
Q 5.609375 18.84375 5.609375 36.375 
Q 5.609375 53.953125 15.125 64.078125 
Q 24.65625 74.21875 41.21875 74.21875 
Q 47.75 74.21875 53.53125 72.484375 
Q 59.328125 70.75 64.40625 67.28125 
z
" id="DejaVuSans-43"/>
     </defs>
     <g transform="translate(121.431339 224.788439)scale(0.12 -0.12)">
      <use xlink:href="#DejaVuSans-43"/>
      <use x="69.824219" xlink:href="#DejaVuSans-47"/>
      <use x="147.314453" xlink:href="#DejaVuSans-4b"/>
     </g>
    </g>
   </g>
   <g id="text_11">
    <g clip-path="url(#p36a691249e)">
     <!-- DPS -->
     <g transform="translate(86.292341 260.542187)scale(0.12 -0.12)">
      <use xlink:href="#DejaVuSans-44"/>
      <use x="77.001953" xlink:href="#DejaVuSans-50"/>
      <use x="137.304688" xlink:href="#DejaVuSans-53"/>
     </g>
    </g>
   </g>
   <g id="text_12">
    <g clip-path="url(#p36a691249e)">
     <!-- BKK -->
     <g transform="translate(149.032923 318.921167)scale(0.12 -0.12)">
      <use xlink:href="#DejaVuSans-42"/>
      <use x="68.603516" xlink:href="#DejaVuSans-4b"/>
      <use x="134.179688" xlink:href="#DejaVuSans-4b"/>
     </g>
    </g>
   </g>
   <g id="text_13">
    <g clip-path="url(#p36a691249e)">
     <!-- ORY -->
     <defs>
      <path d="M 44.390625 34.1875 
Q 47.5625 33.109375 50.5625 29.59375 
Q 53.5625 26.078125 56.59375 19.921875 
L 66.609375 0 
L 56 0 
L 46.6875 18.703125 
Q 43.0625 26.03125 39.671875 28.421875 
Q 36.28125 30.8125 30.421875 30.8125 
L 19.671875 30.8125 
L 19.671875 0 
L 9.8125 0 
L 9.8125 72.90625 
L 32.078125 72.90625 
Q 44.578125 72.90625 50.734375 67.671875 
Q 56.890625 62.453125 56.890625 51.90625 
Q 56.890625 45.015625 53.6875 40.46875 
Q 50.484375 35.9375 44.390625 34.1875 
z
M 19.671875 64.796875 
L 19.671875 38.921875 
L 32.078125 38.921875 
Q 39.203125 38.921875 42.84375 42.21875 
Q 46.484375 45.515625 46.484375 51.90625 
Q 46.484375 58.296875 42.84375 61.546875 
Q 39.203125 64.796875 32.078125 64.796875 
z
" id="DejaVuSans-52"/>
      <path d="M -0.203125 72.90625 
L 10.40625 72.90625 
L 30.609375 42.921875 
L 50.6875 72.90625 
L 61.28125 72.90625 
L 35.5 34.71875 
L 35.5 0 
L 25.59375 0 
L 25.59375 34.71875 
z
" id="DejaVuSans-59"/>
     </defs>
     <g transform="translate(404.818037 188.102027)scale(0.12 -0.12)">
      <use xlink:href="#DejaVuSans-4f"/>
      <use x="78.710938" xlink:href="#DejaVuSans-52"/>
      <use x="148.099609" xlink:href="#DejaVuSans-59"/>
     </g>
    </g>
   </g>
   <g id="text_14">
    <g clip-path="url(#p36a691249e)">
     <!-- PRG -->
     <g transform="translate(341.710778 169.85043)scale(0.12 -0.12)">
      <use xlink:href="#DejaVuSans-50"/>
      <use x="60.302734" xlink:href="#DejaVuSans-52"/>
      <use x="129.785156" xlink:href="#DejaVuSans-47"/>
     </g>
    </g>
   </g>
   <g id="text_15">
    <g clip-path="url(#p36a691249e)">
     <!-- MXP -->
     <defs>
      <path d="M 6.296875 72.90625 
L 16.890625 72.90625 
L 35.015625 45.796875 
L 53.21875 72.90625 
L 63.8125 72.90625 
L 40.375 37.890625 
L 65.375 0 
L 54.78125 0 
L 34.28125 31 
L 13.625 0 
L 2.984375 0 
L 29 38.921875 
z
" id="DejaVuSans-58"/>
     </defs>
     <g transform="translate(407.908536 156.691091)scale(0.12 -0.12)">
      <use xlink:href="#DejaVuSans-4d"/>
      <use x="86.279297" xlink:href="#DejaVuSans-58"/>
      <use x="154.785156" xlink:href="#DejaVuSans-50"/>
     </g>
    </g>
   </g>
   <g id="text_16">
    <g clip-path="url(#p36a691249e)">
     <!-- TBS -->
     <defs>
      <path d="M -0.296875 72.90625 
L 61.375 72.90625 
L 61.375 64.59375 
L 35.5 64.59375 
L 35.5 0 
L 25.59375 0 
L 25.59375 64.59375 
L -0.296875 64.59375 
z
" id="DejaVuSans-54"/>
     </defs>
     <g transform="translate(164.710839 97.679078)scale(0.12 -0.12)">
      <use xlink:href="#DejaVuSans-54"/>
      <use x="61.083984" xlink:href="#DejaVuSans-42"/>
      <use x="129.671875" xlink:href="#DejaVuSans-53"/>
     </g>
    </g>
   </g>
   <g id="text_17">
    <g clip-path="url(#p36a691249e)">
     <!-- CRL -->
     <g transform="translate(381.883991 213.312193)scale(0.12 -0.12)">
      <use xlink:href="#DejaVuSans-43"/>
      <use x="69.824219" xlink:href="#DejaVuSans-52"/>
      <use x="139.306641" xlink:href="#DejaVuSans-4c"/>
     </g>
    </g>
   </g>
   <g id="text_18">
    <g clip-path="url(#p36a691249e)">
     <!-- KUL -->
     <g transform="translate(28.319589 278.599884)scale(0.12 -0.12)">
      <use xlink:href="#DejaVuSans-4b"/>
      <use x="65.544922" xlink:href="#DejaVuSans-55"/>
      <use x="138.738281" xlink:href="#DejaVuSans-4c"/>
     </g>
    </g>
   </g>
   <g id="text_19">
    <g clip-path="url(#p36a691249e)">
     <!-- TIV -->
     <g transform="translate(395.140331 42.142911)scale(0.12 -0.12)">
      <use xlink:href="#DejaVuSans-54"/>
      <use x="61.083984" xlink:href="#DejaVuSans-49"/>
      <use x="90.576172" xlink:href="#DejaVuSans-56"/>
     </g>
    </g>
   </g>
   <g id="text_20">
    <g clip-path="url(#p36a691249e)">
     <!-- ICN -->
     <g transform="translate(210.146473 33.301333)scale(0.12 -0.12)">
      <use xlink:href="#DejaVuSans-49"/>
      <use x="29.492188" xlink:href="#DejaVuSans-43"/>
      <use x="99.316406" xlink:href="#DejaVuSans-4e"/>
     </g>
    </g>
   </g>
   <g id="text_21">
    <g clip-path="url(#p36a691249e)">
     <!-- LCA -->
     <g transform="translate(137.323844 126.906022)scale(0.12 -0.12)">
      <use xlink:href="#DejaVuSans-4c"/>
      <use x="55.712891" xlink:href="#DejaVuSans-43"/>
      <use x="125.537109" xlink:href="#DejaVuSans-41"/>
     </g>
    </g>
   </g>
   <g id="text_22">
    <g clip-path="url(#p36a691249e)">
     <!-- TLV -->
     <g transform="translate(81.597389 96.81334)scale(0.12 -0.12)">
      <use xlink:href="#DejaVuSans-54"/>
      <use x="61.083984" xlink:href="#DejaVuSans-4c"/>
      <use x="116.625" xlink:href="#DejaVuSans-56"/>
     </g>
    </g>
   </g>
   <g id="text_23">
    <g clip-path="url(#p36a691249e)">
     <!-- ATH -->
     <g transform="translate(112.692235 63.025001)scale(0.12 -0.12)">
      <use xlink:href="#DejaVuSans-41"/>
      <use x="68.298828" xlink:href="#DejaVuSans-54"/>
      <use x="129.382812" xlink:href="#DejaVuSans-48"/>
     </g>
    </g>
   </g>
   <g id="text_24">
    <g clip-path="url(#p36a691249e)">
     <!-- IKT -->
     <g transform="translate(218.42952 85.908726)scale(0.12 -0.12)">
      <use xlink:href="#DejaVuSans-49"/>
      <use x="29.492188" xlink:href="#DejaVuSans-4b"/>
      <use x="94.958984" xlink:href="#DejaVuSans-54"/>
     </g>
    </g>
   </g>
   <g id="text_25">
    <g clip-path="url(#p36a691249e)">
     <!-- MSQ -->
     <defs>
      <path d="M 39.40625 66.21875 
Q 28.65625 66.21875 22.328125 58.203125 
Q 16.015625 50.203125 16.015625 36.375 
Q 16.015625 22.609375 22.328125 14.59375 
Q 28.65625 6.59375 39.40625 6.59375 
Q 50.140625 6.59375 56.421875 14.59375 
Q 62.703125 22.609375 62.703125 36.375 
Q 62.703125 50.203125 56.421875 58.203125 
Q 50.140625 66.21875 39.40625 66.21875 
z
M 53.21875 1.3125 
L 66.21875 -12.890625 
L 54.296875 -12.890625 
L 43.5 -1.21875 
Q 41.890625 -1.3125 41.03125 -1.359375 
Q 40.1875 -1.421875 39.40625 -1.421875 
Q 24.03125 -1.421875 14.8125 8.859375 
Q 5.609375 19.140625 5.609375 36.375 
Q 5.609375 53.65625 14.8125 63.9375 
Q 24.03125 74.21875 39.40625 74.21875 
Q 54.734375 74.21875 63.90625 63.9375 
Q 73.09375 53.65625 73.09375 36.375 
Q 73.09375 23.6875 67.984375 14.640625 
Q 62.890625 5.609375 53.21875 1.3125 
z
" id="DejaVuSans-51"/>
     </defs>
     <g transform="translate(246.530014 211.343099)scale(0.12 -0.12)">
      <use xlink:href="#DejaVuSans-4d"/>
      <use x="86.279297" xlink:href="#DejaVuSans-53"/>
      <use x="149.755859" xlink:href="#DejaVuSans-51"/>
     </g>
    </g>
   </g>
  </g>
 </g>
 <defs>
  <clipPath id="p36a691249e">
   <rect height="345.6" width="460.8" x="0" y="0"/>
  </clipPath>
 </defs>
</svg>
